# xmcd
# 
# Track frame offsets:
#     150
#     10753
#     19702
#     30274
#     43476
#     55547
#     65839
#     79835
#     89404
#     101359
#     113579
#     124510
#     133282
#     145954
#     156852
#     169194
#     178628
#     187920
#     196827
#     206730
#     216492
#     224975
#     232668
#     243453
#     254971
#     267701
#     278956
#     288568
#     299273
#     310386
#     325413
#     337218
# 
# Disc length: 4686
# 
# Revision: 3
# Processed by: cddbd v1.5.2PL0 Copyright (c) Steve Scherf et al.
# Submitted via: fre:ac v1.0.31
# 
DISCID=fd124c20
DTITLE=50's - The Backbeat of Rock 'n' Roll:  Seminal Sounds from the Instrumental Epoch Disc 3
DYEAR=2012
DGENRE=Rock/Pop
TTITLE0=Link Wray - The Swag
TTITLE1=Duane Eddy - Because They're Young
TTITLE2=Sandy Nelson - Let There Be Drums
TTITLE3=Dave Brubeck Quintet - Take Five
TTITLE4=The Mar-Keys - Last Night
TTITLE5=Phil Upchurch Combo - You Can't Sit Down
TTITLE6=Ray Charles - One Mint Julep
TTITLE7=Floyd Cramer - On the Rebound
TTITLE8=Sil Austin - Slow Walk
TTITLE9=Bill Haley - Rudy's Rock
TTITLE10=Arthur "Guitar Boogie" Smith and His Cracker Jacks - Guitar Bustin'
TTITLE11=Paul Revere and The Raiders - Like Long Hair
TTITLE12=Little Walter - Juck
TTITLE13=H.B. Barnum - Lost Love
TTITLE14=Santo and Johnny - School Days
TTITLE15=The Atmospheres - Kabalo
TTITLE16=The Islanders - Enchanted Sea
TTITLE17=The Frogmen - Underwater
TTITLE18=Dick Dale and The Del-Tones - Let's Go Trippin
TTITLE19=The Bel-Airs - Mr. Moto
TTITLE20=Pau Revere and The Raiders - Beatnick Sticks
TTITLE21=Duane Eddy - Ramrod
TTITLE22=The Shadows - FBI
TTITLE23=The Outlaws - Husky Team
TTITLE24=The Moontrekkers - Night of the Vampire
TTITLE25=The Duals - Stick Shift
TTITLE26=The Tarantulas - Tarantula
TTITLE27=The Wild Cats - Gazachstahagen
TTITLE28=Link Wray - Jack the Ripper
TTITLE29=Arthur "Guitar Boogie" Smith and His Cracker Jacks - Guitar Boogie
TTITLE30=The Outlaws - Tune of the Short Cowboys
TTITLE31=The Blue Men - Entry of the Globbotts
EXTD=
EXTT0=
EXTT1=
EXTT2=
EXTT3=
EXTT4=
EXTT5=
EXTT6=
EXTT7=
EXTT8=
EXTT9=
EXTT10=
EXTT11=
EXTT12=
EXTT13=
EXTT14=
EXTT15=
EXTT16=
EXTT17=
EXTT18=
EXTT19=
EXTT20=
EXTT21=
EXTT22=
EXTT23=
EXTT24=
EXTT25=
EXTT26=
EXTT27=
EXTT28=
EXTT29=
EXTT30=
EXTT31=
PLAYORDER=
